<svg width="107" height="48" viewBox="0 0 107 48" fill="none" xmlns="http://www.w3.org/2000/svg">
<path d="M13.662 36.5125L19.7213 21.3057H22.8286L28.9073 36.5125H25.6058L20.6341 23.087H21.877L16.8859 36.5125H13.662ZM16.6917 33.2539L17.5268 30.5818H24.5183L25.3728 33.2539H16.6917ZM30.4771 36.5125V24.825H33.4873V29.387H38.0318V24.825H41.0614V36.5125H38.0318V32.1459H33.4873V36.5125H30.4771ZM50.2151 36.5125V34.2315L50.0209 33.7318V29.6477C50.0209 28.9236 49.8202 28.3588 49.4189 27.9532C49.0304 27.5477 48.4284 27.3449 47.6127 27.3449C47.056 27.3449 46.5057 27.4463 45.962 27.6491C45.4311 27.8374 44.978 28.0981 44.6025 28.4311L43.5149 26.0632C44.0847 25.6143 44.7708 25.2667 45.5735 25.0205C46.3763 24.7743 47.192 24.6512 48.0206 24.6512C49.6131 24.6512 50.8495 25.0712 51.7299 25.9112C52.6104 26.7512 53.0505 28.0618 53.0505 29.8432V36.5125H50.2151ZM47.0301 36.6863C46.2144 36.6863 45.5153 36.5342 44.9327 36.2301C44.35 35.9115 43.9034 35.4842 43.5926 34.9483C43.2819 34.4125 43.1265 33.8115 43.1265 33.1453C43.1265 32.4501 43.2754 31.8418 43.5732 31.3204C43.8839 30.7991 44.3695 30.3936 45.0298 30.1039C45.6901 29.7998 46.5511 29.6477 47.6127 29.6477H50.3899V31.6246H47.9429C47.2308 31.6246 46.7388 31.7549 46.4669 32.0156C46.208 32.2763 46.0785 32.6022 46.0785 32.9932C46.0785 33.4277 46.2274 33.7752 46.5252 34.0359C46.8359 34.2822 47.2567 34.4052 47.7875 34.4052C48.2924 34.4052 48.7456 34.2749 49.147 34.0142C49.5483 33.7391 49.8397 33.3408 50.0209 32.8194L50.487 34.3835C50.2669 35.1366 49.8655 35.7087 49.2829 36.0997C48.7003 36.4908 47.9494 36.6863 47.0301 36.6863ZM54.3618 36.4907L54.5171 33.7101C54.5948 33.7246 54.6725 33.7391 54.7502 33.7535C54.8279 33.7535 54.899 33.7535 54.9638 33.7535C55.3263 33.7535 55.6112 33.6377 55.8183 33.4059C56.0254 33.1743 56.1808 32.8628 56.2844 32.4718C56.388 32.0663 56.4592 31.6101 56.4981 31.1032C56.5498 30.5963 56.5886 30.0677 56.6146 29.5173L56.77 24.825H65.7035V36.5125H62.6739V26.7801L63.3536 27.6056H58.7703L59.4112 26.7367L59.2752 29.6694C59.2364 30.7122 59.1587 31.668 59.0422 32.537C58.9386 33.4059 58.7638 34.1591 58.5178 34.7963C58.2718 35.4191 57.9417 35.9042 57.5274 36.2518C57.113 36.5849 56.5822 36.7514 55.9349 36.7514C55.7018 36.7514 55.4558 36.7297 55.1969 36.6863C54.9379 36.6428 54.6595 36.5776 54.3618 36.4907ZM68.617 36.5125V24.825H71.6272V31.7766L76.7154 24.825H79.4926V36.5125H76.4824V29.5608L71.4136 36.5125H68.617ZM85.8446 36.7297C86.8288 36.7297 87.709 36.5849 88.4858 36.2952C89.2758 35.9911 89.8973 35.5639 90.3502 35.0135C90.8163 34.4487 91.0493 33.7898 91.0493 33.0366C91.0493 32.1532 90.7192 31.4581 90.0589 30.9511C89.3986 30.4297 88.492 30.1691 87.34 30.1691L87.2623 30.8425C87.9226 30.8425 88.5184 30.7195 89.049 30.4732C89.5796 30.2125 89.9944 29.8577 90.2919 29.4087C90.6026 28.9598 90.758 28.4529 90.758 27.888C90.758 27.1784 90.5312 26.5774 90.0783 26.0849C89.6378 25.5926 89.0296 25.216 88.2527 24.9553C87.4759 24.6946 86.602 24.5788 85.6309 24.6077C84.9706 24.6222 84.3041 24.7236 83.6306 24.9118C82.9571 25.1002 82.2774 25.3536 81.5914 25.6722L82.3294 28.0184C82.912 27.7577 83.4815 27.5622 84.0384 27.4318C84.5954 27.2871 85.1322 27.2146 85.6504 27.2146C86.1033 27.2146 86.4792 27.2653 86.7768 27.3667C87.0743 27.4536 87.3011 27.5839 87.4565 27.7577C87.6118 27.9315 87.6895 28.1415 87.6895 28.3877C87.6895 28.6194 87.625 28.8222 87.4953 28.996C87.3788 29.1553 87.1978 29.2784 86.9515 29.3653C86.7053 29.4522 86.4078 29.4956 86.0582 29.4956H84.1744V31.6028H86.3107C86.8544 31.6028 87.2685 31.7043 87.5536 31.907C87.8387 32.0953 87.9809 32.3777 87.9809 32.7542C87.9809 33.0439 87.89 33.2901 87.709 33.4928C87.5279 33.6956 87.2623 33.8549 86.9127 33.9708C86.5763 34.0722 86.1747 34.1228 85.7086 34.1228C85.0615 34.1228 84.4206 34.0504 83.786 33.9056C83.1645 33.7463 82.5881 33.5219 82.0575 33.2321L81.2418 35.6001C81.9153 35.9767 82.6464 36.2591 83.4364 36.4473C84.2389 36.6356 85.0421 36.7297 85.8446 36.7297ZM103.975 36.5125V24.825H106.985V36.5125H103.975ZM98.7115 28.5615C100.083 28.576 101.113 28.9236 101.799 29.6042C102.499 30.2705 102.848 31.2191 102.848 32.4501C102.848 33.7391 102.453 34.7456 101.663 35.4697C100.873 36.1794 99.7533 36.5342 98.3037 36.5342L93.2154 36.5125V24.825H96.2257V28.5615H98.7115ZM98.0318 34.1228C98.6144 34.1373 99.0611 33.9998 99.3718 33.7101C99.6825 33.4204 99.8379 32.986 99.8379 32.4066C99.8379 31.8274 99.6825 31.4146 99.3718 31.1684C99.0611 30.9077 98.6144 30.7701 98.0318 30.7556L96.2257 30.7339V34.1228H98.0318Z" fill="#8069FF"/>
<path d="M69.0616 36.5588L60.1498 46.7439" stroke="#313131" stroke-width="3"/>
<path d="M81.8245 42.5652C91.8386 42.5652 99.9567 33.4844 99.9567 22.2826C99.9567 11.0808 91.8386 2 81.8245 2C71.8104 2 63.6923 11.0808 63.6923 22.2826C63.6923 33.4844 71.8104 42.5652 81.8245 42.5652Z" stroke="#313131" stroke-width="3"/>
<mask id="mask0_10_3970" style="mask-type:alpha" maskUnits="userSpaceOnUse" x="13" y="21" width="94" height="16">
<path d="M13.662 36.5125L19.7213 21.3057H22.8286L28.9073 36.5125H25.6058L20.6341 23.087H21.877L16.8859 36.5125H13.662ZM16.6917 33.2539L17.5268 30.5818H24.5183L25.3728 33.2539H16.6917ZM30.4771 36.5125V24.825H33.4873V29.387H38.0318V24.825H41.0614V36.5125H38.0318V32.1459H33.4873V36.5125H30.4771ZM50.2151 36.5125V34.2315L50.0209 33.7318V29.6477C50.0209 28.9236 49.8202 28.3588 49.4189 27.9532C49.0304 27.5477 48.4284 27.3449 47.6127 27.3449C47.056 27.3449 46.5057 27.4463 45.962 27.6491C45.4311 27.8374 44.978 28.0981 44.6025 28.4311L43.5149 26.0632C44.0847 25.6143 44.7708 25.2667 45.5735 25.0205C46.3763 24.7743 47.192 24.6512 48.0206 24.6512C49.6131 24.6512 50.8495 25.0712 51.7299 25.9112C52.6104 26.7512 53.0505 28.0618 53.0505 29.8432V36.5125H50.2151ZM47.0301 36.6863C46.2144 36.6863 45.5153 36.5342 44.9327 36.2301C44.35 35.9115 43.9034 35.4842 43.5926 34.9483C43.2819 34.4125 43.1265 33.8115 43.1265 33.1453C43.1265 32.4501 43.2754 31.8418 43.5732 31.3204C43.8839 30.7991 44.3695 30.3936 45.0298 30.1039C45.6901 29.7998 46.5511 29.6477 47.6127 29.6477H50.3899V31.6246H47.9429C47.2308 31.6246 46.7388 31.7549 46.4669 32.0156C46.208 32.2763 46.0785 32.6022 46.0785 32.9932C46.0785 33.4277 46.2274 33.7752 46.5252 34.0359C46.8359 34.2822 47.2567 34.4052 47.7875 34.4052C48.2924 34.4052 48.7456 34.2749 49.147 34.0142C49.5483 33.7391 49.8397 33.3408 50.0209 32.8194L50.487 34.3835C50.2669 35.1366 49.8655 35.7087 49.2829 36.0997C48.7003 36.4908 47.9494 36.6863 47.0301 36.6863ZM54.3618 36.4907L54.5171 33.7101C54.5948 33.7246 54.6725 33.7391 54.7502 33.7535C54.8279 33.7535 54.899 33.7535 54.9638 33.7535C55.3263 33.7535 55.6112 33.6377 55.8183 33.4059C56.0254 33.1743 56.1808 32.8628 56.2844 32.4718C56.388 32.0663 56.4592 31.6101 56.4981 31.1032C56.5498 30.5963 56.5886 30.0677 56.6146 29.5173L56.77 24.825H65.7035V36.5125H62.6739V26.7801L63.3536 27.6056H58.7703L59.4112 26.7367L59.2752 29.6694C59.2364 30.7122 59.1587 31.668 59.0422 32.537C58.9386 33.4059 58.7638 34.1591 58.5178 34.7963C58.2718 35.4191 57.9417 35.9042 57.5274 36.2518C57.113 36.5849 56.5822 36.7514 55.9349 36.7514C55.7018 36.7514 55.4558 36.7297 55.1969 36.6863C54.9379 36.6428 54.6595 36.5776 54.3618 36.4907ZM68.617 36.5125V24.825H71.6272V31.7766L76.7154 24.825H79.4926V36.5125H76.4824V29.5608L71.4136 36.5125H68.617ZM85.8446 36.7297C86.8288 36.7297 87.709 36.5849 88.4858 36.2952C89.2758 35.9911 89.8973 35.5639 90.3502 35.0135C90.8163 34.4487 91.0493 33.7898 91.0493 33.0366C91.0493 32.1532 90.7192 31.4581 90.0589 30.9511C89.3986 30.4297 88.492 30.1691 87.34 30.1691L87.2623 30.8425C87.9226 30.8425 88.5184 30.7195 89.049 30.4732C89.5796 30.2125 89.9944 29.8577 90.2919 29.4087C90.6026 28.9598 90.758 28.4529 90.758 27.888C90.758 27.1784 90.5312 26.5774 90.0783 26.0849C89.6378 25.5926 89.0296 25.216 88.2527 24.9553C87.4759 24.6946 86.602 24.5788 85.6309 24.6077C84.9706 24.6222 84.3041 24.7236 83.6306 24.9118C82.9571 25.1002 82.2774 25.3536 81.5914 25.6722L82.3294 28.0184C82.912 27.7577 83.4815 27.5622 84.0384 27.4318C84.5954 27.2871 85.1322 27.2146 85.6504 27.2146C86.1033 27.2146 86.4792 27.2653 86.7768 27.3667C87.0743 27.4536 87.3011 27.5839 87.4565 27.7577C87.6118 27.9315 87.6895 28.1415 87.6895 28.3877C87.6895 28.6194 87.625 28.8222 87.4953 28.996C87.3788 29.1553 87.1978 29.2784 86.9515 29.3653C86.7053 29.4522 86.4078 29.4956 86.0582 29.4956H84.1744V31.6028H86.3107C86.8544 31.6028 87.2685 31.7043 87.5536 31.907C87.8387 32.0953 87.9809 32.3777 87.9809 32.7542C87.9809 33.0439 87.89 33.2901 87.709 33.4928C87.5279 33.6956 87.2623 33.8549 86.9127 33.9708C86.5763 34.0722 86.1747 34.1228 85.7086 34.1228C85.0615 34.1228 84.4206 34.0504 83.786 33.9056C83.1645 33.7463 82.5881 33.5219 82.0575 33.2321L81.2418 35.6001C81.9153 35.9767 82.6464 36.2591 83.4364 36.4473C84.2389 36.6356 85.0421 36.7297 85.8446 36.7297ZM103.975 36.5125V24.825H106.985V36.5125H103.975ZM98.7115 28.5615C100.083 28.576 101.113 28.9236 101.799 29.6042C102.499 30.2705 102.848 31.2191 102.848 32.4501C102.848 33.7391 102.453 34.7456 101.663 35.4697C100.873 36.1794 99.7533 36.5342 98.3037 36.5342L93.2154 36.5125V24.825H96.2257V28.5615H98.7115ZM98.0318 34.1228C98.6144 34.1373 99.0611 33.9998 99.3718 33.7101C99.6825 33.4204 99.8379 32.986 99.8379 32.4066C99.8379 31.8274 99.6825 31.4146 99.3718 31.1684C99.0611 30.9077 98.6144 30.7701 98.0318 30.7556L96.2257 30.7339V34.1228H98.0318Z" fill="#4AB876"/>
</mask>
<g mask="url(#mask0_10_3970)">
<path d="M81.8245 44.1169C92.6048 44.1169 101.344 34.3414 101.344 22.2826C101.344 10.2238 92.6048 0.448242 81.8245 0.448242C71.0442 0.448242 62.3051 10.2238 62.3051 22.2826C62.3051 34.3414 71.0442 44.1169 81.8245 44.1169Z" fill="#313131"/>
</g>
<path d="M7.36047 18.298C6.31175 18.298 5.33424 18.1097 4.42793 17.7332C3.53458 17.3422 2.75775 16.7918 2.09744 16.0822C1.43714 15.3725 0.919247 14.5398 0.543781 13.5839C0.181258 12.628 0 11.5781 0 10.4339C0 9.28976 0.181258 8.23979 0.543781 7.28394C0.919247 6.32808 1.43714 5.49535 2.09744 4.78567C2.7707 4.07602 3.554 3.53292 4.44735 3.15637C5.34071 2.76534 6.3182 2.56982 7.37989 2.56982C8.5581 2.56982 9.61972 2.80155 10.5649 3.26499C11.523 3.71396 12.3257 4.38016 12.9731 5.2636L10.9533 7.34911C10.4872 6.75534 9.9693 6.31357 9.39965 6.02394C8.82999 5.71981 8.20853 5.56774 7.53525 5.56774C6.90082 5.56774 6.3182 5.68357 5.78739 5.91532C5.25655 6.14707 4.79693 6.48015 4.40851 6.91463C4.0201 7.34911 3.71584 7.86327 3.49574 8.45703C3.28858 9.0508 3.185 9.70981 3.185 10.4339C3.185 11.158 3.28858 11.817 3.49574 12.4108C3.71584 13.0046 4.0201 13.5187 4.40851 13.9532C4.79693 14.3877 5.25655 14.7208 5.78739 14.9525C6.3182 15.1843 6.90082 15.3001 7.53525 15.3001C8.20853 15.3001 8.82999 15.1552 9.39965 14.8656C9.9693 14.5615 10.4872 14.1053 10.9533 13.497L12.9731 15.5825C12.3257 16.466 11.523 17.1394 10.5649 17.6028C9.61972 18.0663 8.55158 18.298 7.36047 18.298ZM20.947 18.2111C20.0666 18.2111 19.2962 17.9939 18.6359 17.5594C17.9756 17.1249 17.4577 16.466 17.0822 15.5825C16.7197 14.6846 16.5384 13.555 16.5384 12.1936C16.5384 10.8177 16.7132 9.68809 17.0628 8.80462C17.4124 7.92115 17.9173 7.26221 18.5776 6.82773C19.2379 6.39325 20.0277 6.17601 20.947 6.17601C21.931 6.17601 22.8113 6.42948 23.5882 6.93635C24.378 7.42879 24.9994 8.12396 25.4526 9.02186C25.9187 9.91976 26.1517 10.977 26.1517 12.1936C26.1517 13.4246 25.9187 14.4891 25.4526 15.387C24.9994 16.2849 24.378 16.9801 23.5882 17.4725C22.8113 17.9649 21.931 18.2111 20.947 18.2111ZM14.7711 22.2518V6.3498H17.6648V8.73944L17.6066 12.2153L17.8008 15.6694V22.2518H14.7711ZM20.4226 15.4304C20.9275 15.4304 21.3742 15.3001 21.7626 15.0394C22.164 14.7787 22.4812 14.4094 22.7142 13.9315C22.9603 13.439 23.0832 12.8598 23.0832 12.1936C23.0832 11.5129 22.9603 10.9336 22.7142 10.4556C22.4812 9.97771 22.164 9.6084 21.7626 9.34772C21.3742 9.08703 20.9275 8.95668 20.4226 8.95668C19.9177 8.95668 19.4645 9.08703 19.0631 9.34772C18.6618 9.6084 18.3446 9.97771 18.1115 10.4556C17.8785 10.9336 17.7619 11.5129 17.7619 12.1936C17.7619 12.8598 17.8785 13.439 18.1115 13.9315C18.3446 14.4094 18.6618 14.7787 19.0631 15.0394C19.4645 15.3001 19.9177 15.4304 20.4226 15.4304ZM34.3579 18.0373V15.7563L34.1637 15.2566V11.1725C34.1637 10.4484 33.963 9.8836 33.5616 9.47806C33.1732 9.07252 32.5712 8.86979 31.7555 8.86979C31.1988 8.86979 30.6485 8.97119 30.1047 9.17392C29.5739 9.36222 29.1208 9.62291 28.7453 9.95599L27.6577 7.58807C28.2274 7.13908 28.9136 6.7915 29.7163 6.54532C30.5191 6.29914 31.3348 6.17601 32.1633 6.17601C33.7558 6.17601 34.9923 6.59598 35.8727 7.436C36.7532 8.27602 37.1933 9.58668 37.1933 11.368V18.0373H34.3579ZM31.1729 18.2111C30.3572 18.2111 29.6581 18.059 29.0754 17.7549C28.4928 17.4363 28.0461 17.0091 27.7354 16.4732C27.4247 15.9373 27.2693 15.3363 27.2693 14.6701C27.2693 13.9749 27.4182 13.3667 27.716 12.8453C28.0267 12.3239 28.5122 11.9184 29.1725 11.6287C29.8328 11.3246 30.6939 11.1725 31.7555 11.1725H34.5327V13.1494H32.0857C31.3736 13.1494 30.8816 13.2798 30.6097 13.5405C30.3508 13.8011 30.2213 14.127 30.2213 14.518C30.2213 14.9525 30.3702 15.3001 30.6679 15.5608C30.9787 15.807 31.3995 15.9301 31.9303 15.9301C32.4352 15.9301 32.8884 15.7997 33.2897 15.5391C33.6911 15.2639 33.9824 14.8656 34.1637 14.3442L34.6298 15.9084C34.4097 16.6615 34.0083 17.2335 33.4257 17.6246C32.8431 18.0156 32.0922 18.2111 31.1729 18.2111ZM39.8252 18.0373V6.3498H45.1659C46.4735 6.3498 47.4964 6.61771 48.2344 7.15359C48.9724 7.67497 49.3413 8.41358 49.3413 9.36944C49.3413 10.3253 48.9918 11.0784 48.2926 11.6287C47.6064 12.1646 46.6936 12.4325 45.5543 12.4325L45.865 11.6505C47.1338 11.6505 48.079 11.9111 48.7005 12.4325C49.3348 12.9539 49.6521 13.7142 49.6521 14.7135C49.6521 15.7418 49.3025 16.5529 48.6034 17.1466C47.9042 17.7404 46.8361 18.0373 45.3989 18.0373H39.8252ZM42.6023 15.7346H45.1465C45.7031 15.7346 46.1175 15.6332 46.3894 15.4304C46.6742 15.2132 46.8166 14.8873 46.8166 14.4529C46.8166 14.0039 46.6871 13.678 46.4282 13.4753C46.1692 13.258 45.7614 13.1494 45.2047 13.1494H42.6023V15.7346ZM42.6023 11.1508H44.894C45.4248 11.1508 45.8197 11.0422 46.0787 10.8249C46.3505 10.6077 46.4865 10.2964 46.4865 9.89082C46.4865 9.47084 46.3505 9.15941 46.0787 8.95668C45.8197 8.75395 45.4248 8.65255 44.894 8.65255H42.6023V11.1508ZM51.9062 18.0373V6.3498H54.9164V10.9118H59.4609V6.3498H62.4905V18.0373H59.4609V13.6708H54.9164V18.0373H51.9062ZM65.3907 18.0373V6.3498H68.4009V13.3015L73.4895 6.3498H76.2667V18.0373H73.2565V11.0856L68.1873 18.0373H65.3907Z" fill="#8069FF"/>
<mask id="mask1_10_3970" style="mask-type:alpha" maskUnits="userSpaceOnUse" x="0" y="2" width="77" height="21">
<path d="M7.36047 18.298C6.31175 18.298 5.33424 18.1097 4.42793 17.7332C3.53458 17.3422 2.75775 16.7918 2.09744 16.0822C1.43714 15.3725 0.919247 14.5398 0.543781 13.5839C0.181258 12.628 0 11.5781 0 10.4339C0 9.28976 0.181258 8.23979 0.543781 7.28394C0.919247 6.32808 1.43714 5.49535 2.09744 4.78567C2.7707 4.07602 3.554 3.53292 4.44735 3.15637C5.34071 2.76534 6.3182 2.56982 7.37989 2.56982C8.5581 2.56982 9.61972 2.80155 10.5649 3.26499C11.523 3.71396 12.3257 4.38016 12.9731 5.2636L10.9533 7.34911C10.4872 6.75534 9.9693 6.31357 9.39965 6.02394C8.82999 5.71981 8.20853 5.56774 7.53525 5.56774C6.90082 5.56774 6.3182 5.68357 5.78739 5.91532C5.25655 6.14707 4.79693 6.48015 4.40851 6.91463C4.0201 7.34911 3.71584 7.86327 3.49574 8.45703C3.28858 9.0508 3.185 9.70981 3.185 10.4339C3.185 11.158 3.28858 11.817 3.49574 12.4108C3.71584 13.0046 4.0201 13.5187 4.40851 13.9532C4.79693 14.3877 5.25655 14.7208 5.78739 14.9525C6.3182 15.1843 6.90082 15.3001 7.53525 15.3001C8.20853 15.3001 8.82999 15.1552 9.39965 14.8656C9.9693 14.5615 10.4872 14.1053 10.9533 13.497L12.9731 15.5825C12.3257 16.466 11.523 17.1394 10.5649 17.6028C9.61972 18.0663 8.55158 18.298 7.36047 18.298ZM20.947 18.2111C20.0666 18.2111 19.2962 17.9939 18.6359 17.5594C17.9756 17.1249 17.4577 16.466 17.0822 15.5825C16.7197 14.6846 16.5384 13.555 16.5384 12.1936C16.5384 10.8177 16.7132 9.68809 17.0628 8.80462C17.4124 7.92115 17.9173 7.26221 18.5776 6.82773C19.2379 6.39325 20.0277 6.17601 20.947 6.17601C21.931 6.17601 22.8113 6.42948 23.5882 6.93635C24.378 7.42879 24.9994 8.12396 25.4526 9.02186C25.9187 9.91976 26.1517 10.977 26.1517 12.1936C26.1517 13.4246 25.9187 14.4891 25.4526 15.387C24.9994 16.2849 24.378 16.9801 23.5882 17.4725C22.8113 17.9649 21.931 18.2111 20.947 18.2111ZM14.7711 22.2518V6.3498H17.6648V8.73944L17.6066 12.2153L17.8008 15.6694V22.2518H14.7711ZM20.4226 15.4304C20.9275 15.4304 21.3742 15.3001 21.7626 15.0394C22.164 14.7787 22.4812 14.4094 22.7142 13.9315C22.9603 13.439 23.0832 12.8598 23.0832 12.1936C23.0832 11.5129 22.9603 10.9336 22.7142 10.4556C22.4812 9.97771 22.164 9.6084 21.7626 9.34772C21.3742 9.08703 20.9275 8.95668 20.4226 8.95668C19.9177 8.95668 19.4645 9.08703 19.0631 9.34772C18.6618 9.6084 18.3446 9.97771 18.1115 10.4556C17.8785 10.9336 17.7619 11.5129 17.7619 12.1936C17.7619 12.8598 17.8785 13.439 18.1115 13.9315C18.3446 14.4094 18.6618 14.7787 19.0631 15.0394C19.4645 15.3001 19.9177 15.4304 20.4226 15.4304ZM34.3579 18.0373V15.7563L34.1637 15.2566V11.1725C34.1637 10.4484 33.963 9.8836 33.5616 9.47806C33.1732 9.07252 32.5712 8.86979 31.7555 8.86979C31.1988 8.86979 30.6485 8.97119 30.1047 9.17392C29.5739 9.36222 29.1208 9.62291 28.7453 9.95599L27.6577 7.58807C28.2274 7.13908 28.9136 6.7915 29.7163 6.54532C30.5191 6.29914 31.3348 6.17601 32.1633 6.17601C33.7558 6.17601 34.9923 6.59598 35.8727 7.436C36.7532 8.27602 37.1933 9.58668 37.1933 11.368V18.0373H34.3579ZM31.1729 18.2111C30.3572 18.2111 29.6581 18.059 29.0754 17.7549C28.4928 17.4363 28.0461 17.0091 27.7354 16.4732C27.4247 15.9373 27.2693 15.3363 27.2693 14.6701C27.2693 13.9749 27.4182 13.3667 27.716 12.8453C28.0267 12.3239 28.5122 11.9184 29.1725 11.6287C29.8328 11.3246 30.6939 11.1725 31.7555 11.1725H34.5327V13.1494H32.0857C31.3736 13.1494 30.8816 13.2798 30.6097 13.5405C30.3508 13.8011 30.2213 14.127 30.2213 14.518C30.2213 14.9525 30.3702 15.3001 30.6679 15.5608C30.9787 15.807 31.3995 15.9301 31.9303 15.9301C32.4352 15.9301 32.8884 15.7997 33.2897 15.5391C33.6911 15.2639 33.9824 14.8656 34.1637 14.3442L34.6298 15.9084C34.4097 16.6615 34.0083 17.2335 33.4257 17.6246C32.8431 18.0156 32.0922 18.2111 31.1729 18.2111ZM39.8252 18.0373V6.3498H45.1659C46.4735 6.3498 47.4964 6.61771 48.2344 7.15359C48.9724 7.67497 49.3413 8.41358 49.3413 9.36944C49.3413 10.3253 48.9918 11.0784 48.2926 11.6287C47.6064 12.1646 46.6936 12.4325 45.5543 12.4325L45.865 11.6505C47.1338 11.6505 48.079 11.9111 48.7005 12.4325C49.3348 12.9539 49.6521 13.7142 49.6521 14.7135C49.6521 15.7418 49.3025 16.5529 48.6034 17.1466C47.9042 17.7404 46.8361 18.0373 45.3989 18.0373H39.8252ZM42.6023 15.7346H45.1465C45.7031 15.7346 46.1175 15.6332 46.3894 15.4304C46.6742 15.2132 46.8166 14.8873 46.8166 14.4529C46.8166 14.0039 46.6871 13.678 46.4282 13.4753C46.1692 13.258 45.7614 13.1494 45.2047 13.1494H42.6023V15.7346ZM42.6023 11.1508H44.894C45.4248 11.1508 45.8197 11.0422 46.0787 10.8249C46.3505 10.6077 46.4865 10.2964 46.4865 9.89082C46.4865 9.47084 46.3505 9.15941 46.0787 8.95668C45.8197 8.75395 45.4248 8.65255 44.894 8.65255H42.6023V11.1508ZM51.9062 18.0373V6.3498H54.9164V10.9118H59.4609V6.3498H62.4905V18.0373H59.4609V13.6708H54.9164V18.0373H51.9062ZM65.3907 18.0373V6.3498H68.4009V13.3015L73.4895 6.3498H76.2667V18.0373H73.2565V11.0856L68.1873 18.0373H65.3907Z" fill="#4AB876"/>
</mask>
<g mask="url(#mask1_10_3970)">
<path d="M81.8245 44.1172C92.6048 44.1172 101.344 34.3416 101.344 22.2828C101.344 10.2241 92.6048 0.448486 81.8245 0.448486C71.0442 0.448486 62.3051 10.2241 62.3051 22.2828C62.3051 34.3416 71.0442 44.1172 81.8245 44.1172Z" fill="#313131"/>
</g>
</svg>
