<svg width="107" height="44" viewBox="0 0 107 44" fill="none" xmlns="http://www.w3.org/2000/svg">
<path d="M13.662 32.8533L19.7213 19.2588H22.8286L28.9073 32.8533H25.6058L20.6341 20.8513H21.877L16.8859 32.8533H13.662ZM16.6917 29.9402L17.5268 27.5515H24.5183L25.3728 29.9402H16.6917ZM30.4771 32.8533V22.405H33.4873V26.4833H38.0318V22.405H41.0614V32.8533H38.0318V28.9497H33.4873V32.8533H30.4771ZM50.2151 32.8533V30.8141L50.0209 30.3675V26.7164C50.0209 26.069 49.8202 25.5641 49.4189 25.2015C49.0304 24.8391 48.4284 24.6578 47.6127 24.6578C47.056 24.6578 46.5057 24.7484 45.962 24.9296C45.4311 25.098 44.978 25.331 44.6025 25.6288L43.5149 23.5119C44.0847 23.1106 44.7708 22.7999 45.5735 22.5797C46.3763 22.3597 47.192 22.2496 48.0206 22.2496C49.6131 22.2496 50.8495 22.6251 51.7299 23.376C52.6104 24.1269 53.0505 25.2986 53.0505 26.8911V32.8533H50.2151ZM47.0301 33.0087C46.2144 33.0087 45.5153 32.8727 44.9327 32.6009C44.35 32.3161 43.9034 31.9341 43.5926 31.455C43.2819 30.976 43.1265 30.4387 43.1265 29.8431C43.1265 29.2216 43.2754 28.6779 43.5732 28.2118C43.8839 27.7457 44.3695 27.3832 45.0298 27.1242C45.6901 26.8523 46.5511 26.7164 47.6127 26.7164H50.3899V28.4836H47.9429C47.2308 28.4836 46.7388 28.6002 46.4669 28.8332C46.208 29.0663 46.0785 29.3576 46.0785 29.7072C46.0785 30.0956 46.2274 30.4063 46.5252 30.6394C46.8359 30.8595 47.2567 30.9695 47.7875 30.9695C48.2924 30.9695 48.7456 30.853 49.147 30.6199C49.5483 30.374 49.8397 30.0179 50.0209 29.5518L50.487 30.9501C50.2669 31.6234 49.8655 32.1348 49.2829 32.4843C48.7003 32.8339 47.9494 33.0087 47.0301 33.0087ZM54.3618 32.8339L54.5171 30.348C54.5948 30.361 54.6725 30.374 54.7502 30.3869C54.8279 30.3869 54.899 30.3869 54.9638 30.3869C55.3263 30.3869 55.6112 30.2833 55.8183 30.0762C56.0254 29.869 56.1808 29.5906 56.2844 29.2411C56.388 28.8786 56.4592 28.4707 56.4981 28.0175C56.5498 27.5644 56.5886 27.0919 56.6146 26.5998L56.77 22.405H65.7035V32.8533H62.6739V24.1528L63.3536 24.8908H58.7703L59.4112 24.114L59.2752 26.7358C59.2364 27.668 59.1587 28.5225 59.0422 29.2993C58.9386 30.0762 58.7638 30.7494 58.5178 31.3191C58.2718 31.8758 57.9417 32.3095 57.5274 32.6203C57.113 32.9181 56.5822 33.0669 55.9349 33.0669C55.7018 33.0669 55.4558 33.0475 55.1969 33.0087C54.9379 32.9698 54.6595 32.9116 54.3618 32.8339ZM68.617 32.8533V22.405H71.6272V28.6196L76.7154 22.405H79.4926V32.8533H76.4824V26.6387L71.4136 32.8533H68.617ZM85.8446 33.0475C86.8288 33.0475 87.709 32.9181 88.4858 32.6591C89.2758 32.3872 89.8973 32.0053 90.3502 31.5133C90.8163 31.0083 91.0493 30.4193 91.0493 29.746C91.0493 28.9563 90.7192 28.3348 90.0589 27.8816C89.3986 27.4155 88.492 27.1825 87.34 27.1825L87.2623 27.7845C87.9226 27.7845 88.5184 27.6745 89.049 27.4544C89.5796 27.2213 89.9944 26.9041 90.2919 26.5027C90.6026 26.1014 90.758 25.6482 90.758 25.1433C90.758 24.5089 90.5312 23.9716 90.0783 23.5314C89.6378 23.0912 89.0296 22.7545 88.2527 22.5215C87.4759 22.2884 86.602 22.1849 85.6309 22.2107C84.9706 22.2237 84.3041 22.3144 83.6306 22.4826C82.9571 22.651 82.2774 22.8776 81.5914 23.1624L82.3294 25.2598C82.912 25.0268 83.4815 24.852 84.0384 24.7354C84.5954 24.606 85.1322 24.5412 85.6504 24.5412C86.1033 24.5412 86.4792 24.5866 86.7768 24.6772C87.0743 24.7549 87.3011 24.8714 87.4565 25.0268C87.6118 25.1821 87.6895 25.3699 87.6895 25.59C87.6895 25.7971 87.625 25.9784 87.4953 26.1337C87.3788 26.2762 87.1978 26.3862 86.9515 26.4639C86.7053 26.5416 86.4078 26.5804 86.0582 26.5804H84.1744V28.4642H86.3107C86.8544 28.4642 87.2685 28.5549 87.5536 28.7361C87.8387 28.9045 87.9809 29.1569 87.9809 29.4935C87.9809 29.7525 87.89 29.9726 87.709 30.1538C87.5279 30.3351 87.2623 30.4775 86.9127 30.5811C86.5763 30.6717 86.1747 30.717 85.7086 30.717C85.0615 30.717 84.4206 30.6523 83.786 30.5228C83.1645 30.3804 82.5881 30.1798 82.0575 29.9208L81.2418 32.0376C81.9153 32.3743 82.6464 32.6268 83.4364 32.7951C84.2389 32.9634 85.0421 33.0475 85.8446 33.0475ZM103.975 32.8533V22.405H106.985V32.8533H103.975ZM98.7115 25.7453C100.083 25.7583 101.113 26.069 101.799 26.6775C102.499 27.2731 102.848 28.1212 102.848 29.2216C102.848 30.374 102.453 31.2738 101.663 31.9211C100.873 32.5556 99.7533 32.8727 98.3037 32.8727L93.2154 32.8533V22.405H96.2257V25.7453H98.7115ZM98.0318 30.717C98.6144 30.73 99.0611 30.607 99.3718 30.348C99.6825 30.0891 99.8379 29.7007 99.8379 29.1828C99.8379 28.665 99.6825 28.296 99.3718 28.0758C99.0611 27.8428 98.6144 27.7198 98.0318 27.7068L96.2257 27.6874V30.717H98.0318Z" fill="#8069FF"/>
<path d="M69.0616 32.8948L60.1498 42" stroke="white" stroke-width="3"/>
<path d="M81.8245 38.2644C91.8386 38.2644 99.9567 30.1463 99.9567 20.1322C99.9567 10.1181 91.8386 2 81.8245 2C71.8104 2 63.6923 10.1181 63.6923 20.1322C63.6923 30.1463 71.8104 38.2644 81.8245 38.2644Z" stroke="white" stroke-width="3"/>
<mask id="mask0_10_3990" style="mask-type:alpha" maskUnits="userSpaceOnUse" x="13" y="19" width="94" height="15">
<path d="M13.662 32.8533L19.7213 19.2588H22.8286L28.9073 32.8533H25.6058L20.6341 20.8513H21.877L16.8859 32.8533H13.662ZM16.6917 29.9402L17.5268 27.5515H24.5183L25.3728 29.9402H16.6917ZM30.4771 32.8533V22.405H33.4873V26.4833H38.0318V22.405H41.0614V32.8533H38.0318V28.9497H33.4873V32.8533H30.4771ZM50.2151 32.8533V30.8141L50.0209 30.3675V26.7164C50.0209 26.069 49.8202 25.5641 49.4189 25.2015C49.0304 24.8391 48.4284 24.6578 47.6127 24.6578C47.056 24.6578 46.5057 24.7484 45.962 24.9296C45.4311 25.098 44.978 25.331 44.6025 25.6288L43.5149 23.5119C44.0847 23.1106 44.7708 22.7999 45.5735 22.5797C46.3763 22.3597 47.192 22.2496 48.0206 22.2496C49.6131 22.2496 50.8495 22.6251 51.7299 23.376C52.6104 24.1269 53.0505 25.2986 53.0505 26.8911V32.8533H50.2151ZM47.0301 33.0087C46.2144 33.0087 45.5153 32.8727 44.9327 32.6009C44.35 32.3161 43.9034 31.9341 43.5926 31.455C43.2819 30.976 43.1265 30.4387 43.1265 29.8431C43.1265 29.2216 43.2754 28.6779 43.5732 28.2118C43.8839 27.7457 44.3695 27.3832 45.0298 27.1242C45.6901 26.8523 46.5511 26.7164 47.6127 26.7164H50.3899V28.4836H47.9429C47.2308 28.4836 46.7388 28.6002 46.4669 28.8332C46.208 29.0663 46.0785 29.3576 46.0785 29.7072C46.0785 30.0956 46.2274 30.4063 46.5252 30.6394C46.8359 30.8595 47.2567 30.9695 47.7875 30.9695C48.2924 30.9695 48.7456 30.853 49.147 30.6199C49.5483 30.374 49.8397 30.0179 50.0209 29.5518L50.487 30.9501C50.2669 31.6234 49.8655 32.1348 49.2829 32.4843C48.7003 32.8339 47.9494 33.0087 47.0301 33.0087ZM54.3618 32.8339L54.5171 30.348C54.5948 30.361 54.6725 30.374 54.7502 30.3869C54.8279 30.3869 54.899 30.3869 54.9638 30.3869C55.3263 30.3869 55.6112 30.2833 55.8183 30.0762C56.0254 29.869 56.1808 29.5906 56.2844 29.2411C56.388 28.8786 56.4592 28.4707 56.4981 28.0175C56.5498 27.5644 56.5886 27.0919 56.6146 26.5998L56.77 22.405H65.7035V32.8533H62.6739V24.1528L63.3536 24.8908H58.7703L59.4112 24.114L59.2752 26.7358C59.2364 27.668 59.1587 28.5225 59.0422 29.2993C58.9386 30.0762 58.7638 30.7494 58.5178 31.3191C58.2718 31.8758 57.9417 32.3095 57.5274 32.6203C57.113 32.9181 56.5822 33.0669 55.9349 33.0669C55.7018 33.0669 55.4558 33.0475 55.1969 33.0087C54.9379 32.9698 54.6595 32.9116 54.3618 32.8339ZM68.617 32.8533V22.405H71.6272V28.6196L76.7154 22.405H79.4926V32.8533H76.4824V26.6387L71.4136 32.8533H68.617ZM85.8446 33.0475C86.8288 33.0475 87.709 32.9181 88.4858 32.6591C89.2758 32.3872 89.8973 32.0053 90.3502 31.5133C90.8163 31.0083 91.0493 30.4193 91.0493 29.746C91.0493 28.9563 90.7192 28.3348 90.0589 27.8816C89.3986 27.4155 88.492 27.1825 87.34 27.1825L87.2623 27.7845C87.9226 27.7845 88.5184 27.6745 89.049 27.4544C89.5796 27.2213 89.9944 26.9041 90.2919 26.5027C90.6026 26.1014 90.758 25.6482 90.758 25.1433C90.758 24.5089 90.5312 23.9716 90.0783 23.5314C89.6378 23.0912 89.0296 22.7545 88.2527 22.5215C87.4759 22.2884 86.602 22.1849 85.6309 22.2107C84.9706 22.2237 84.3041 22.3144 83.6306 22.4826C82.9571 22.651 82.2774 22.8776 81.5914 23.1624L82.3294 25.2598C82.912 25.0268 83.4815 24.852 84.0384 24.7354C84.5954 24.606 85.1322 24.5412 85.6504 24.5412C86.1033 24.5412 86.4792 24.5866 86.7768 24.6772C87.0743 24.7549 87.3011 24.8714 87.4565 25.0268C87.6118 25.1821 87.6895 25.3699 87.6895 25.59C87.6895 25.7971 87.625 25.9784 87.4953 26.1337C87.3788 26.2762 87.1978 26.3862 86.9515 26.4639C86.7053 26.5416 86.4078 26.5804 86.0582 26.5804H84.1744V28.4642H86.3107C86.8544 28.4642 87.2685 28.5549 87.5536 28.7361C87.8387 28.9045 87.9809 29.1569 87.9809 29.4935C87.9809 29.7525 87.89 29.9726 87.709 30.1538C87.5279 30.3351 87.2623 30.4775 86.9127 30.5811C86.5763 30.6717 86.1747 30.717 85.7086 30.717C85.0615 30.717 84.4206 30.6523 83.786 30.5228C83.1645 30.3804 82.5881 30.1798 82.0575 29.9208L81.2418 32.0376C81.9153 32.3743 82.6464 32.6268 83.4364 32.7951C84.2389 32.9634 85.0421 33.0475 85.8446 33.0475ZM103.975 32.8533V22.405H106.985V32.8533H103.975ZM98.7115 25.7453C100.083 25.7583 101.113 26.069 101.799 26.6775C102.499 27.2731 102.848 28.1212 102.848 29.2216C102.848 30.374 102.453 31.2738 101.663 31.9211C100.873 32.5556 99.7533 32.8727 98.3037 32.8727L93.2154 32.8533V22.405H96.2257V25.7453H98.7115ZM98.0318 30.717C98.6144 30.73 99.0611 30.607 99.3718 30.348C99.6825 30.0891 99.8379 29.7007 99.8379 29.1828C99.8379 28.665 99.6825 28.296 99.3718 28.0758C99.0611 27.8428 98.6144 27.7198 98.0318 27.7068L96.2257 27.6874V30.717H98.0318Z" fill="#4AB876"/>
</mask>
<g mask="url(#mask0_10_3990)">
<path d="M81.8245 39.6516C92.6048 39.6516 101.344 30.9124 101.344 20.1322C101.344 9.35192 92.6048 0.612793 81.8245 0.612793C71.0442 0.612793 62.3051 9.35192 62.3051 20.1322C62.3051 30.9124 71.0442 39.6516 81.8245 39.6516Z" fill="white"/>
</g>
<path d="M7.36047 16.5699C6.31175 16.5699 5.33424 16.4016 4.42793 16.065C3.53458 15.7154 2.75775 15.2234 2.09744 14.589C1.43714 13.9546 0.919247 13.2101 0.543781 12.3556C0.181258 11.5011 0 10.5624 0 9.53959C0 8.51674 0.181258 7.5781 0.543781 6.72358C0.919247 5.86907 1.43714 5.12463 2.09744 4.49019C2.7707 3.85578 3.554 3.37026 4.44735 3.03364C5.34071 2.68406 6.3182 2.50928 7.37989 2.50928C8.5581 2.50928 9.61972 2.71643 10.5649 3.13074C11.523 3.53211 12.3257 4.12767 12.9731 4.91745L10.9533 6.78184C10.4872 6.25103 9.9693 5.8561 9.39965 5.59718C8.82999 5.32529 8.20853 5.18934 7.53525 5.18934C6.90082 5.18934 6.3182 5.2929 5.78739 5.50007C5.25655 5.70725 4.79693 6.00501 4.40851 6.39343C4.0201 6.78184 3.71584 7.24149 3.49574 7.7723C3.28858 8.30311 3.185 8.89226 3.185 9.53959C3.185 10.1869 3.28858 10.7761 3.49574 11.3069C3.71584 11.8377 4.0201 12.2973 4.40851 12.6858C4.79693 13.0742 5.25655 13.3719 5.78739 13.5791C6.3182 13.7863 6.90082 13.8898 7.53525 13.8898C8.20853 13.8898 8.82999 13.7603 9.39965 13.5014C9.9693 13.2295 10.4872 12.8217 10.9533 12.2779L12.9731 14.1423C12.3257 14.9321 11.523 15.5342 10.5649 15.9484C9.61972 16.3627 8.55158 16.5699 7.36047 16.5699ZM20.947 16.4922C20.0666 16.4922 19.2962 16.298 18.6359 15.9096C17.9756 15.5212 17.4577 14.9321 17.0822 14.1423C16.7197 13.3396 16.5384 12.3297 16.5384 11.1127C16.5384 9.88272 16.7132 8.87284 17.0628 8.08303C17.4124 7.29323 17.9173 6.70416 18.5776 6.31575C19.2379 5.92733 20.0277 5.73312 20.947 5.73312C21.931 5.73312 22.8113 5.95972 23.5882 6.41285C24.378 6.85308 24.9994 7.47454 25.4526 8.27724C25.9187 9.07994 26.1517 10.0251 26.1517 11.1127C26.1517 12.2132 25.9187 13.1648 25.4526 13.9675C24.9994 14.7702 24.378 15.3917 23.5882 15.8319C22.8113 16.2721 21.931 16.4922 20.947 16.4922ZM14.7711 20.1045V5.88849H17.6648V8.02477L17.6066 11.1321L17.8008 14.22V20.1045H14.7711ZM20.4226 14.0064C20.9275 14.0064 21.3742 13.8898 21.7626 13.6568C22.164 13.4237 22.4812 13.0936 22.7142 12.6663C22.9603 12.2261 23.0832 11.7083 23.0832 11.1127C23.0832 10.5042 22.9603 9.98627 22.7142 9.55901C22.4812 9.13176 22.164 8.8016 21.7626 8.56855C21.3742 8.33551 20.9275 8.21898 20.4226 8.21898C19.9177 8.21898 19.4645 8.33551 19.0631 8.56855C18.6618 8.8016 18.3446 9.13176 18.1115 9.55901C17.8785 9.98627 17.7619 10.5042 17.7619 11.1127C17.7619 11.7083 17.8785 12.2261 18.1115 12.6663C18.3446 13.0936 18.6618 13.4237 19.0631 13.6568C19.4645 13.8898 19.9177 14.0064 20.4226 14.0064ZM34.3579 16.3369V14.2977L34.1637 13.851V10.1999C34.1637 9.55256 33.963 9.04762 33.5616 8.68508C33.1732 8.32253 32.5712 8.1413 31.7555 8.1413C31.1988 8.1413 30.6485 8.23195 30.1047 8.41319C29.5739 8.58152 29.1208 8.81457 28.7453 9.11233L27.6577 6.99547C28.2274 6.59409 28.9136 6.28335 29.7163 6.06328C30.5191 5.8432 31.3348 5.73312 32.1633 5.73312C33.7558 5.73312 34.9923 6.10857 35.8727 6.85953C36.7532 7.61049 37.1933 8.78218 37.1933 10.3747V16.3369H34.3579ZM31.1729 16.4922C30.3572 16.4922 29.6581 16.3563 29.0754 16.0844C28.4928 15.7995 28.0461 15.4176 27.7354 14.9386C27.4247 14.4595 27.2693 13.9222 27.2693 13.3266C27.2693 12.7052 27.4182 12.1614 27.716 11.6953C28.0267 11.2292 28.5122 10.8667 29.1725 10.6077C29.8328 10.3358 30.6939 10.1999 31.7555 10.1999H34.5327V11.9672H32.0857C31.3736 11.9672 30.8816 12.0837 30.6097 12.3168C30.3508 12.5498 30.2213 12.8411 30.2213 13.1907C30.2213 13.5791 30.3702 13.8898 30.6679 14.1229C30.9787 14.343 31.3995 14.453 31.9303 14.453C32.4352 14.453 32.8884 14.3365 33.2897 14.1035C33.6911 13.8575 33.9824 13.5014 34.1637 13.0353L34.6298 14.4336C34.4097 15.1069 34.0083 15.6183 33.4257 15.9679C32.8431 16.3174 32.0922 16.4922 31.1729 16.4922ZM39.8252 16.3369V5.88849H45.1659C46.4735 5.88849 47.4964 6.12799 48.2344 6.60706C48.9724 7.07316 49.3413 7.73346 49.3413 8.58797C49.3413 9.44249 48.9918 10.1158 48.2926 10.6077C47.6064 11.0868 46.6936 11.3263 45.5543 11.3263L45.865 10.6272C47.1338 10.6272 48.079 10.8602 48.7005 11.3263C49.3348 11.7924 49.6521 12.4721 49.6521 13.3655C49.6521 14.2847 49.3025 15.0098 48.6034 15.5406C47.9042 16.0714 46.8361 16.3369 45.3989 16.3369H39.8252ZM42.6023 14.2783H45.1465C45.7031 14.2783 46.1175 14.1876 46.3894 14.0064C46.6742 13.8122 46.8166 13.5208 46.8166 13.1324C46.8166 12.731 46.6871 12.4397 46.4282 12.2585C46.1692 12.0643 45.7614 11.9672 45.2047 11.9672H42.6023V14.2783ZM42.6023 10.1805H44.894C45.4248 10.1805 45.8197 10.0834 46.0787 9.88917C46.3505 9.69496 46.4865 9.41662 46.4865 9.05407C46.4865 8.67863 46.3505 8.40022 46.0787 8.21898C45.8197 8.03774 45.4248 7.94709 44.894 7.94709H42.6023V10.1805ZM51.9062 16.3369V5.88849H54.9164V9.96685H59.4609V5.88849H62.4905V16.3369H59.4609V12.4333H54.9164V16.3369H51.9062ZM65.3907 16.3369V5.88849H68.4009V12.1031L73.4895 5.88849H76.2667V16.3369H73.2565V10.1222L68.1873 16.3369H65.3907Z" fill="#8069FF"/>
<mask id="mask1_10_3990" style="mask-type:alpha" maskUnits="userSpaceOnUse" x="0" y="2" width="77" height="19">
<path d="M7.36047 16.5699C6.31175 16.5699 5.33424 16.4016 4.42793 16.065C3.53458 15.7154 2.75775 15.2234 2.09744 14.589C1.43714 13.9546 0.919247 13.2101 0.543781 12.3556C0.181258 11.5011 0 10.5624 0 9.53959C0 8.51674 0.181258 7.5781 0.543781 6.72358C0.919247 5.86907 1.43714 5.12463 2.09744 4.49019C2.7707 3.85578 3.554 3.37026 4.44735 3.03364C5.34071 2.68406 6.3182 2.50928 7.37989 2.50928C8.5581 2.50928 9.61972 2.71643 10.5649 3.13074C11.523 3.53211 12.3257 4.12767 12.9731 4.91745L10.9533 6.78184C10.4872 6.25103 9.9693 5.8561 9.39965 5.59718C8.82999 5.32529 8.20853 5.18934 7.53525 5.18934C6.90082 5.18934 6.3182 5.2929 5.78739 5.50007C5.25655 5.70725 4.79693 6.00501 4.40851 6.39343C4.0201 6.78184 3.71584 7.24149 3.49574 7.7723C3.28858 8.30311 3.185 8.89226 3.185 9.53959C3.185 10.1869 3.28858 10.7761 3.49574 11.3069C3.71584 11.8377 4.0201 12.2973 4.40851 12.6858C4.79693 13.0742 5.25655 13.3719 5.78739 13.5791C6.3182 13.7863 6.90082 13.8898 7.53525 13.8898C8.20853 13.8898 8.82999 13.7603 9.39965 13.5014C9.9693 13.2295 10.4872 12.8217 10.9533 12.2779L12.9731 14.1423C12.3257 14.9321 11.523 15.5342 10.5649 15.9484C9.61972 16.3627 8.55158 16.5699 7.36047 16.5699ZM20.947 16.4922C20.0666 16.4922 19.2962 16.298 18.6359 15.9096C17.9756 15.5212 17.4577 14.9321 17.0822 14.1423C16.7197 13.3396 16.5384 12.3297 16.5384 11.1127C16.5384 9.88272 16.7132 8.87284 17.0628 8.08303C17.4124 7.29323 17.9173 6.70416 18.5776 6.31575C19.2379 5.92733 20.0277 5.73312 20.947 5.73312C21.931 5.73312 22.8113 5.95972 23.5882 6.41285C24.378 6.85308 24.9994 7.47454 25.4526 8.27724C25.9187 9.07994 26.1517 10.0251 26.1517 11.1127C26.1517 12.2132 25.9187 13.1648 25.4526 13.9675C24.9994 14.7702 24.378 15.3917 23.5882 15.8319C22.8113 16.2721 21.931 16.4922 20.947 16.4922ZM14.7711 20.1045V5.88849H17.6648V8.02477L17.6066 11.1321L17.8008 14.22V20.1045H14.7711ZM20.4226 14.0064C20.9275 14.0064 21.3742 13.8898 21.7626 13.6568C22.164 13.4237 22.4812 13.0936 22.7142 12.6663C22.9603 12.2261 23.0832 11.7083 23.0832 11.1127C23.0832 10.5042 22.9603 9.98627 22.7142 9.55901C22.4812 9.13176 22.164 8.8016 21.7626 8.56855C21.3742 8.33551 20.9275 8.21898 20.4226 8.21898C19.9177 8.21898 19.4645 8.33551 19.0631 8.56855C18.6618 8.8016 18.3446 9.13176 18.1115 9.55901C17.8785 9.98627 17.7619 10.5042 17.7619 11.1127C17.7619 11.7083 17.8785 12.2261 18.1115 12.6663C18.3446 13.0936 18.6618 13.4237 19.0631 13.6568C19.4645 13.8898 19.9177 14.0064 20.4226 14.0064ZM34.3579 16.3369V14.2977L34.1637 13.851V10.1999C34.1637 9.55256 33.963 9.04762 33.5616 8.68508C33.1732 8.32253 32.5712 8.1413 31.7555 8.1413C31.1988 8.1413 30.6485 8.23195 30.1047 8.41319C29.5739 8.58152 29.1208 8.81457 28.7453 9.11233L27.6577 6.99547C28.2274 6.59409 28.9136 6.28335 29.7163 6.06328C30.5191 5.8432 31.3348 5.73312 32.1633 5.73312C33.7558 5.73312 34.9923 6.10857 35.8727 6.85953C36.7532 7.61049 37.1933 8.78218 37.1933 10.3747V16.3369H34.3579ZM31.1729 16.4922C30.3572 16.4922 29.6581 16.3563 29.0754 16.0844C28.4928 15.7995 28.0461 15.4176 27.7354 14.9386C27.4247 14.4595 27.2693 13.9222 27.2693 13.3266C27.2693 12.7052 27.4182 12.1614 27.716 11.6953C28.0267 11.2292 28.5122 10.8667 29.1725 10.6077C29.8328 10.3358 30.6939 10.1999 31.7555 10.1999H34.5327V11.9672H32.0857C31.3736 11.9672 30.8816 12.0837 30.6097 12.3168C30.3508 12.5498 30.2213 12.8411 30.2213 13.1907C30.2213 13.5791 30.3702 13.8898 30.6679 14.1229C30.9787 14.343 31.3995 14.453 31.9303 14.453C32.4352 14.453 32.8884 14.3365 33.2897 14.1035C33.6911 13.8575 33.9824 13.5014 34.1637 13.0353L34.6298 14.4336C34.4097 15.1069 34.0083 15.6183 33.4257 15.9679C32.8431 16.3174 32.0922 16.4922 31.1729 16.4922ZM39.8252 16.3369V5.88849H45.1659C46.4735 5.88849 47.4964 6.12799 48.2344 6.60706C48.9724 7.07316 49.3413 7.73346 49.3413 8.58797C49.3413 9.44249 48.9918 10.1158 48.2926 10.6077C47.6064 11.0868 46.6936 11.3263 45.5543 11.3263L45.865 10.6272C47.1338 10.6272 48.079 10.8602 48.7005 11.3263C49.3348 11.7924 49.6521 12.4721 49.6521 13.3655C49.6521 14.2847 49.3025 15.0098 48.6034 15.5406C47.9042 16.0714 46.8361 16.3369 45.3989 16.3369H39.8252ZM42.6023 14.2783H45.1465C45.7031 14.2783 46.1175 14.1876 46.3894 14.0064C46.6742 13.8122 46.8166 13.5208 46.8166 13.1324C46.8166 12.731 46.6871 12.4397 46.4282 12.2585C46.1692 12.0643 45.7614 11.9672 45.2047 11.9672H42.6023V14.2783ZM42.6023 10.1805H44.894C45.4248 10.1805 45.8197 10.0834 46.0787 9.88917C46.3505 9.69496 46.4865 9.41662 46.4865 9.05407C46.4865 8.67863 46.3505 8.40022 46.0787 8.21898C45.8197 8.03774 45.4248 7.94709 44.894 7.94709H42.6023V10.1805ZM51.9062 16.3369V5.88849H54.9164V9.96685H59.4609V5.88849H62.4905V16.3369H59.4609V12.4333H54.9164V16.3369H51.9062ZM65.3907 16.3369V5.88849H68.4009V12.1031L73.4895 5.88849H76.2667V16.3369H73.2565V10.1222L68.1873 16.3369H65.3907Z" fill="#4AB876"/>
</mask>
<g mask="url(#mask1_10_3990)">
<path d="M81.8245 39.6516C92.6048 39.6516 101.344 30.9124 101.344 20.1322C101.344 9.35192 92.6048 0.612793 81.8245 0.612793C71.0442 0.612793 62.3051 9.35192 62.3051 20.1322C62.3051 30.9124 71.0442 39.6516 81.8245 39.6516Z" fill="white"/>
</g>
</svg>
