<svg width="104" height="42" viewBox="0 0 104 42" fill="none" xmlns="http://www.w3.org/2000/svg">
<path d="M13.2808 31.8527L19.171 18.2578H22.1916L28.1008 31.8527H24.8913L20.0583 19.8504H21.2666L16.4147 31.8527H13.2808ZM16.2259 28.9395L17.0377 26.5507H23.8341L24.6648 28.9395H16.2259ZM29.6267 31.8527V21.4041H32.553V25.4825H36.9706V21.4041H39.9158V31.8527H36.9706V27.949H32.553V31.8527H29.6267ZM48.8141 31.8527V29.8135L48.6253 29.3668V25.7156C48.6253 25.0682 48.4303 24.5633 48.0401 24.2007C47.6625 23.8382 47.0772 23.6569 46.2843 23.6569C45.7432 23.6569 45.2082 23.7476 44.6796 23.9288C44.1636 24.0972 43.7231 24.3302 43.3581 24.628L42.3009 22.5111C42.8547 22.1098 43.5217 21.799 44.302 21.5789C45.0824 21.3588 45.8753 21.2487 46.6808 21.2487C48.2289 21.2487 49.4308 21.6242 50.2867 22.3751C51.1426 23.1261 51.5704 24.2978 51.5704 25.8904V31.8527H48.8141ZM45.718 32.0081C44.925 32.0081 44.2454 31.8722 43.679 31.6003C43.1127 31.3155 42.6784 30.9335 42.3764 30.4544C42.0743 29.9754 41.9233 29.438 41.9233 28.8424C41.9233 28.2209 42.068 27.6771 42.3575 27.211C42.6596 26.7449 43.1315 26.3824 43.7734 26.1234C44.4153 25.8515 45.2523 25.7156 46.2843 25.7156H48.984V27.4829H46.6053C45.9131 27.4829 45.4348 27.5995 45.1705 27.8325C44.9188 28.0656 44.7929 28.3569 44.7929 28.7065C44.7929 29.0949 44.9376 29.4056 45.2271 29.6387C45.5292 29.8589 45.9382 29.9689 46.4542 29.9689C46.9451 29.9689 47.3856 29.8523 47.7758 29.6193C48.1659 29.3733 48.4491 29.0172 48.6253 28.5511L49.0784 29.9494C48.8645 30.6227 48.4743 31.1341 47.9079 31.4837C47.3415 31.8333 46.6116 32.0081 45.718 32.0081ZM52.8451 31.8333L52.9961 29.3474C53.0717 29.3603 53.1472 29.3733 53.2227 29.3862C53.2982 29.3862 53.3674 29.3862 53.4304 29.3862C53.7827 29.3862 54.0596 29.2827 54.261 29.0755C54.4624 28.8684 54.6134 28.5899 54.7141 28.2404C54.8148 27.8779 54.884 27.47 54.9218 27.0168C54.9721 26.5637 55.0098 26.0911 55.0351 25.5991L55.1861 21.4041H63.8704V31.8527H60.9253V23.152L61.5861 23.89H57.1306L57.7536 23.1131L57.6215 25.735C57.5837 26.6672 57.5082 27.5218 57.3949 28.2986C57.2942 29.0755 57.1243 29.7488 56.8852 30.3184C56.6461 30.8752 56.3251 31.3089 55.9224 31.6197C55.5196 31.9175 55.0036 32.0664 54.3743 32.0664C54.1478 32.0664 53.9086 32.0469 53.6569 32.0081C53.4051 31.9693 53.1346 31.911 52.8451 31.8333ZM66.7026 31.8527V21.4041H69.6289V27.6189L74.5751 21.4041H77.2748V31.8527H74.3486V25.6379L69.4212 31.8527H66.7026ZM83.4496 32.0469C84.4064 32.0469 85.262 31.9175 86.0172 31.6585C86.7851 31.3866 87.3893 31.0047 87.8295 30.5127C88.2826 30.0077 88.5092 29.4186 88.5092 28.7453C88.5092 27.9556 88.1882 27.3341 87.5464 26.8809C86.9045 26.4148 86.0232 26.1817 84.9033 26.1817L84.8278 26.7838C85.4697 26.7838 86.0489 26.6738 86.5647 26.4536C87.0805 26.2206 87.4837 25.9034 87.7729 25.502C88.075 25.1006 88.226 24.6474 88.226 24.1425C88.226 23.5081 88.0055 22.9707 87.5652 22.5305C87.1371 22.0903 86.5458 21.7536 85.7906 21.5206C85.0354 21.2875 84.1859 21.184 83.242 21.2099C82.6001 21.2228 81.9521 21.3135 81.2974 21.4817C80.6427 21.6501 79.9819 21.8767 79.3151 22.1615L80.0325 24.259C80.5989 24.0259 81.1525 23.8511 81.6939 23.7346C82.2353 23.6052 82.7572 23.5404 83.2608 23.5404C83.7011 23.5404 84.0666 23.5858 84.3558 23.6764C84.6451 23.754 84.8655 23.8706 85.0166 24.0259C85.1676 24.1813 85.2431 24.3691 85.2431 24.5892C85.2431 24.7963 85.1804 24.9776 85.0543 25.133C84.9411 25.2754 84.7651 25.3854 84.5257 25.4631C84.2864 25.5408 83.9971 25.5796 83.6573 25.5796H81.826V27.4635H83.9027C84.4313 27.4635 84.8338 27.5542 85.111 27.7354C85.3881 27.9038 85.5263 28.1562 85.5263 28.4928C85.5263 28.7518 85.438 28.9719 85.262 29.1532C85.086 29.3345 84.8278 29.4769 84.488 29.5804C84.1609 29.6711 83.7706 29.7164 83.3175 29.7164C82.6884 29.7164 82.0654 29.6517 81.4484 29.5222C80.8443 29.3798 80.284 29.1791 79.7682 28.9201L78.9753 31.037C79.63 31.3737 80.3407 31.6262 81.1086 31.7945C81.8887 31.9628 82.6695 32.0469 83.4496 32.0469ZM101.074 31.8527V21.4041H104V31.8527H101.074ZM95.9576 24.7445C97.2913 24.7575 98.2919 25.0682 98.9594 25.6768C99.639 26.2724 99.9788 27.1204 99.9788 28.2209C99.9788 29.3733 99.5945 30.2732 98.8272 30.9205C98.0592 31.555 96.9703 31.8721 95.5612 31.8721L90.6149 31.8527V21.4041H93.5411V24.7445H95.9576ZM95.2968 29.7164C95.8632 29.7294 96.2974 29.6064 96.5995 29.3474C96.9016 29.0885 97.0526 28.7 97.0526 28.1821C97.0526 27.6642 96.9016 27.2952 96.5995 27.0751C96.2974 26.842 95.8632 26.7191 95.2968 26.7061L93.5411 26.6867V29.7164H95.2968Z" fill="white"/>
<path d="M67.1344 31.8945L58.4712 41" stroke="#313131" stroke-width="2"/>
<path d="M79.5424 37.2654C89.2772 37.2654 97.1688 29.1471 97.1688 19.1327C97.1688 9.11829 89.2772 1 79.5424 1C69.8076 1 61.916 9.11829 61.916 19.1327C61.916 29.1471 69.8076 37.2654 79.5424 37.2654Z" stroke="#313131" stroke-width="2"/>
<mask id="mask0_1_3027" style="mask-type:alpha" maskUnits="userSpaceOnUse" x="13" y="18" width="91" height="15">
<path d="M13.2808 31.8527L19.171 18.2578H22.1916L28.1008 31.8527H24.8913L20.0583 19.8504H21.2666L16.4147 31.8527H13.2808ZM16.2259 28.9395L17.0377 26.5507H23.8341L24.6648 28.9395H16.2259ZM29.6267 31.8527V21.4041H32.553V25.4825H36.9706V21.4041H39.9158V31.8527H36.9706V27.949H32.553V31.8527H29.6267ZM48.8141 31.8527V29.8135L48.6253 29.3668V25.7156C48.6253 25.0682 48.4303 24.5633 48.0401 24.2007C47.6625 23.8382 47.0772 23.6569 46.2843 23.6569C45.7432 23.6569 45.2082 23.7476 44.6796 23.9288C44.1636 24.0972 43.7231 24.3302 43.3581 24.628L42.3009 22.5111C42.8547 22.1098 43.5217 21.799 44.302 21.5789C45.0824 21.3588 45.8753 21.2487 46.6808 21.2487C48.2289 21.2487 49.4308 21.6242 50.2867 22.3751C51.1426 23.1261 51.5704 24.2978 51.5704 25.8904V31.8527H48.8141ZM45.718 32.0081C44.925 32.0081 44.2454 31.8722 43.679 31.6003C43.1127 31.3155 42.6784 30.9335 42.3764 30.4544C42.0743 29.9754 41.9233 29.438 41.9233 28.8424C41.9233 28.2209 42.068 27.6771 42.3575 27.211C42.6596 26.7449 43.1315 26.3824 43.7734 26.1234C44.4153 25.8515 45.2523 25.7156 46.2843 25.7156H48.984V27.4829H46.6053C45.9131 27.4829 45.4348 27.5995 45.1705 27.8325C44.9188 28.0656 44.7929 28.3569 44.7929 28.7065C44.7929 29.0949 44.9376 29.4056 45.2271 29.6387C45.5292 29.8589 45.9382 29.9689 46.4542 29.9689C46.9451 29.9689 47.3856 29.8523 47.7758 29.6193C48.1659 29.3733 48.4491 29.0172 48.6253 28.5511L49.0784 29.9494C48.8645 30.6227 48.4743 31.1341 47.9079 31.4837C47.3415 31.8333 46.6116 32.0081 45.718 32.0081ZM52.8451 31.8333L52.9961 29.3474C53.0717 29.3603 53.1472 29.3733 53.2227 29.3862C53.2982 29.3862 53.3674 29.3862 53.4304 29.3862C53.7827 29.3862 54.0596 29.2827 54.261 29.0755C54.4624 28.8684 54.6134 28.5899 54.7141 28.2404C54.8148 27.8779 54.884 27.47 54.9218 27.0168C54.9721 26.5637 55.0098 26.0911 55.0351 25.5991L55.1861 21.4041H63.8704V31.8527H60.9253V23.152L61.5861 23.89H57.1306L57.7536 23.1131L57.6215 25.735C57.5837 26.6672 57.5082 27.5218 57.3949 28.2986C57.2942 29.0755 57.1243 29.7488 56.8852 30.3184C56.6461 30.8752 56.3251 31.3089 55.9224 31.6197C55.5196 31.9175 55.0036 32.0664 54.3743 32.0664C54.1478 32.0664 53.9086 32.0469 53.6569 32.0081C53.4051 31.9693 53.1346 31.911 52.8451 31.8333ZM66.7026 31.8527V21.4041H69.6289V27.6189L74.5751 21.4041H77.2748V31.8527H74.3486V25.6379L69.4212 31.8527H66.7026ZM83.4496 32.0469C84.4064 32.0469 85.262 31.9175 86.0172 31.6585C86.7851 31.3866 87.3893 31.0047 87.8295 30.5127C88.2826 30.0077 88.5092 29.4186 88.5092 28.7453C88.5092 27.9556 88.1882 27.3341 87.5464 26.8809C86.9045 26.4148 86.0232 26.1817 84.9033 26.1817L84.8278 26.7838C85.4697 26.7838 86.0489 26.6738 86.5647 26.4536C87.0805 26.2206 87.4837 25.9034 87.7729 25.502C88.075 25.1006 88.226 24.6474 88.226 24.1425C88.226 23.5081 88.0055 22.9707 87.5652 22.5305C87.1371 22.0903 86.5458 21.7536 85.7906 21.5206C85.0354 21.2875 84.1859 21.184 83.242 21.2099C82.6001 21.2228 81.9521 21.3135 81.2974 21.4817C80.6427 21.6501 79.9819 21.8767 79.3151 22.1615L80.0325 24.259C80.5989 24.0259 81.1525 23.8511 81.6939 23.7346C82.2353 23.6052 82.7572 23.5404 83.2608 23.5404C83.7011 23.5404 84.0666 23.5858 84.3558 23.6764C84.6451 23.754 84.8655 23.8706 85.0166 24.0259C85.1676 24.1813 85.2431 24.3691 85.2431 24.5892C85.2431 24.7963 85.1804 24.9776 85.0543 25.133C84.9411 25.2754 84.7651 25.3854 84.5257 25.4631C84.2864 25.5408 83.9971 25.5796 83.6573 25.5796H81.826V27.4635H83.9027C84.4313 27.4635 84.8338 27.5542 85.111 27.7354C85.3881 27.9038 85.5263 28.1562 85.5263 28.4928C85.5263 28.7518 85.438 28.9719 85.262 29.1532C85.086 29.3345 84.8278 29.4769 84.488 29.5804C84.1609 29.6711 83.7706 29.7164 83.3175 29.7164C82.6884 29.7164 82.0654 29.6517 81.4484 29.5222C80.8443 29.3798 80.284 29.1791 79.7682 28.9201L78.9753 31.037C79.63 31.3737 80.3407 31.6262 81.1086 31.7945C81.8887 31.9628 82.6695 32.0469 83.4496 32.0469ZM101.074 31.8527V21.4041H104V31.8527H101.074ZM95.9576 24.7445C97.2913 24.7575 98.2919 25.0682 98.9594 25.6768C99.639 26.2724 99.9788 27.1204 99.9788 28.2209C99.9788 29.3733 99.5945 30.2732 98.8272 30.9205C98.0592 31.555 96.9703 31.8721 95.5612 31.8721L90.6149 31.8527V21.4041H93.5411V24.7445H95.9576ZM95.2968 29.7164C95.8632 29.7294 96.2974 29.6064 96.5995 29.3474C96.9016 29.0885 97.0526 28.7 97.0526 28.1821C97.0526 27.6642 96.9016 27.2952 96.5995 27.0751C96.2974 26.842 95.8632 26.7191 95.2968 26.7061L93.5411 26.6867V29.7164H95.2968Z" fill="#4AB876"/>
</mask>
<g mask="url(#mask0_1_3027)">
<path d="M79.5418 38.6527C90.0213 38.6527 98.5166 29.9133 98.5166 19.1327C98.5166 8.35217 90.0213 -0.387207 79.5418 -0.387207C69.0622 -0.387207 60.5669 8.35217 60.5669 19.1327C60.5669 29.9133 69.0622 38.6527 79.5418 38.6527Z" fill="#313131"/>
</g>
<path d="M7.15514 15.5701C6.13567 15.5701 5.18543 15.4017 4.30441 15.0651C3.43597 14.7155 2.68082 14.2235 2.03893 13.5891C1.39704 12.9546 0.893603 12.2102 0.528612 11.3556C0.176202 10.5011 0 9.56243 0 8.53955C0 7.51667 0.176202 6.578 0.528612 5.72346C0.893603 4.86892 1.39704 4.12446 2.03893 3.49001C2.6934 2.85558 3.45485 2.37004 4.32329 2.03341C5.19172 1.68383 6.14194 1.50903 7.17401 1.50903C8.31936 1.50903 9.35137 1.7162 10.2702 2.13052C11.2015 2.53189 11.9819 3.12747 12.6112 3.91728L10.6477 5.78172C10.1947 5.2509 9.69119 4.85595 9.13743 4.59702C8.58367 4.32512 7.97954 4.18917 7.32505 4.18917C6.70831 4.18917 6.14194 4.29273 5.62594 4.49992C5.10991 4.7071 4.66311 5.00487 4.28553 5.3933C3.90795 5.78172 3.61218 6.24138 3.39822 6.77221C3.19684 7.30304 3.09615 7.8922 3.09615 8.53955C3.09615 9.1869 3.19684 9.77606 3.39822 10.3069C3.61218 10.8377 3.90795 11.2974 4.28553 11.6858C4.66311 12.0742 5.10991 12.372 5.62594 12.5792C6.14194 12.7864 6.70831 12.8899 7.32505 12.8899C7.97954 12.8899 8.58367 12.7604 9.13743 12.5015C9.69119 12.2296 10.1947 11.8218 10.6477 11.278L12.6112 13.1424C11.9819 13.9322 11.2015 14.5343 10.2702 14.9486C9.35137 15.3629 8.31302 15.5701 7.15514 15.5701ZM20.3626 15.4924C19.5068 15.4924 18.7579 15.2982 18.116 14.9097C17.4741 14.5213 16.9707 13.9322 16.6057 13.1424C16.2533 12.3397 16.0771 11.3298 16.0771 10.1127C16.0771 8.88268 16.247 7.87277 16.5868 7.08295C16.9266 6.29313 17.4175 5.70404 18.0594 5.31561C18.7013 4.92718 19.469 4.73297 20.3626 4.73297C21.3192 4.73297 22.175 4.95958 22.9301 5.41272C23.6979 5.85296 24.302 6.47444 24.7425 7.27716C25.1956 8.07989 25.4222 9.02508 25.4222 10.1127C25.4222 11.2132 25.1956 12.1649 24.7425 12.9676C24.302 13.7703 23.6979 14.3918 22.9301 14.8321C22.175 15.2723 21.3192 15.4924 20.3626 15.4924ZM14.3591 19.1047V4.88834H17.1721V7.02469L17.1154 10.1321L17.3042 13.2201V19.1047H14.3591ZM19.8529 13.0065C20.3437 13.0065 20.7779 12.8899 21.1555 12.6569C21.5457 12.4238 21.854 12.0936 22.0806 11.6664C22.3197 11.2261 22.4393 10.7083 22.4393 10.1127C22.4393 9.50416 22.3197 8.98624 22.0806 8.55897C21.854 8.1317 21.5457 7.80154 21.1555 7.56848C20.7779 7.33543 20.3437 7.2189 19.8529 7.2189C19.362 7.2189 18.9215 7.33543 18.5313 7.56848C18.1412 7.80154 17.8328 8.1317 17.6063 8.55897C17.3797 8.98624 17.2664 9.50416 17.2664 10.1127C17.2664 10.7083 17.3797 11.2261 17.6063 11.6664C17.8328 12.0936 18.1412 12.4238 18.5313 12.6569C18.9215 12.8899 19.362 13.0065 19.8529 13.0065ZM33.3994 15.337V13.2978L33.2106 12.8511V9.19987C33.2106 8.55252 33.0156 8.04757 32.6254 7.68501C32.2478 7.32246 31.6626 7.14121 30.8696 7.14121C30.3285 7.14121 29.7935 7.23187 29.2649 7.41311C28.7489 7.58145 28.3084 7.81451 27.9434 8.11228L26.8862 5.99536C27.44 5.59396 28.107 5.28322 28.8873 5.06313C29.6677 4.84305 30.4606 4.73297 31.2661 4.73297C32.8142 4.73297 34.0162 5.10843 34.872 5.85941C35.7279 6.61039 36.1557 7.78212 36.1557 9.37467V15.337H33.3994ZM30.3033 15.4924C29.5103 15.4924 28.8307 15.3564 28.2643 15.0845C27.698 14.7997 27.2637 14.4178 26.9617 13.9387C26.6596 13.4596 26.5086 12.9223 26.5086 12.3267C26.5086 11.7052 26.6534 11.1614 26.9428 10.6953C27.2449 10.2292 27.7168 9.86665 28.3587 9.60772C29.0006 9.33582 29.8376 9.19987 30.8696 9.19987H33.5693V10.9672H31.1906C30.4984 10.9672 30.0201 11.0837 29.7558 11.3168C29.5041 11.5499 29.3782 11.8412 29.3782 12.1908C29.3782 12.5792 29.523 12.8899 29.8124 13.123C30.1145 13.3431 30.5235 13.4531 31.0395 13.4531C31.5304 13.4531 31.971 13.3366 32.3611 13.1036C32.7513 12.8575 33.0344 12.5015 33.2106 12.0354L33.6637 13.4337C33.4498 14.107 33.0596 14.6184 32.4932 14.968C31.9269 15.3176 31.1969 15.4924 30.3033 15.4924ZM38.7142 15.337V4.88834H43.9059C45.1771 4.88834 46.1714 5.12785 46.8888 5.60693C47.6062 6.07304 47.9649 6.73337 47.9649 7.5879C47.9649 8.44244 47.6251 9.11574 46.9454 9.60772C46.2783 10.0868 45.391 10.3263 44.2835 10.3263L44.5855 9.62714C45.819 9.62714 46.7378 9.8602 47.3419 10.3263C47.9585 10.7924 48.267 11.4722 48.267 12.3655C48.267 13.2848 47.9271 14.0099 47.2475 14.5407C46.5678 15.0716 45.5295 15.337 44.1325 15.337H38.7142ZM41.4139 13.2783H43.887C44.4282 13.2783 44.831 13.1877 45.0953 13.0065C45.3721 12.8122 45.5106 12.5209 45.5106 12.1325C45.5106 11.7311 45.3847 11.4398 45.133 11.2585C44.8813 11.0643 44.4848 10.9672 43.9437 10.9672H41.4139V13.2783ZM41.4139 9.18045H43.6416C44.1576 9.18045 44.5415 9.08335 44.7932 8.88913C45.0575 8.69492 45.1897 8.41657 45.1897 8.05402C45.1897 7.67856 45.0575 7.40014 44.7932 7.2189C44.5415 7.03766 44.1576 6.947 43.6416 6.947H41.4139V9.18045ZM50.4582 15.337V4.88834H53.3844V8.96682H57.8021V4.88834H60.7472V15.337H57.8021V11.4333H53.3844V15.337H50.4582ZM63.5665 15.337V4.88834H66.4928V11.1032L71.4394 4.88834H74.1391V15.337H71.2129V9.12219L66.2851 15.337H63.5665Z" fill="white"/>
<mask id="mask1_1_3027" style="mask-type:alpha" maskUnits="userSpaceOnUse" x="0" y="1" width="75" height="19">
<path d="M7.15514 15.5701C6.13567 15.5701 5.18543 15.4017 4.30441 15.0651C3.43597 14.7155 2.68082 14.2235 2.03893 13.5891C1.39704 12.9546 0.893603 12.2102 0.528612 11.3556C0.176202 10.5011 0 9.56243 0 8.53955C0 7.51667 0.176202 6.578 0.528612 5.72346C0.893603 4.86892 1.39704 4.12446 2.03893 3.49001C2.6934 2.85558 3.45485 2.37004 4.32329 2.03341C5.19172 1.68383 6.14194 1.50903 7.17401 1.50903C8.31936 1.50903 9.35137 1.7162 10.2702 2.13052C11.2015 2.53189 11.9819 3.12747 12.6112 3.91728L10.6477 5.78172C10.1947 5.2509 9.69119 4.85595 9.13743 4.59702C8.58367 4.32512 7.97954 4.18917 7.32505 4.18917C6.70831 4.18917 6.14194 4.29273 5.62594 4.49992C5.10991 4.7071 4.66311 5.00487 4.28553 5.3933C3.90795 5.78172 3.61218 6.24138 3.39822 6.77221C3.19684 7.30304 3.09615 7.8922 3.09615 8.53955C3.09615 9.1869 3.19684 9.77606 3.39822 10.3069C3.61218 10.8377 3.90795 11.2974 4.28553 11.6858C4.66311 12.0742 5.10991 12.372 5.62594 12.5792C6.14194 12.7864 6.70831 12.8899 7.32505 12.8899C7.97954 12.8899 8.58367 12.7604 9.13743 12.5015C9.69119 12.2296 10.1947 11.8218 10.6477 11.278L12.6112 13.1424C11.9819 13.9322 11.2015 14.5343 10.2702 14.9486C9.35137 15.3629 8.31302 15.5701 7.15514 15.5701ZM20.3626 15.4924C19.5068 15.4924 18.7579 15.2982 18.116 14.9097C17.4741 14.5213 16.9707 13.9322 16.6057 13.1424C16.2533 12.3397 16.0771 11.3298 16.0771 10.1127C16.0771 8.88268 16.247 7.87277 16.5868 7.08295C16.9266 6.29313 17.4175 5.70404 18.0594 5.31561C18.7013 4.92718 19.469 4.73297 20.3626 4.73297C21.3192 4.73297 22.175 4.95958 22.9301 5.41272C23.6979 5.85296 24.302 6.47444 24.7425 7.27716C25.1956 8.07989 25.4222 9.02508 25.4222 10.1127C25.4222 11.2132 25.1956 12.1649 24.7425 12.9676C24.302 13.7703 23.6979 14.3918 22.9301 14.8321C22.175 15.2723 21.3192 15.4924 20.3626 15.4924ZM14.3591 19.1047V4.88834H17.1721V7.02469L17.1154 10.1321L17.3042 13.2201V19.1047H14.3591ZM19.8529 13.0065C20.3437 13.0065 20.7779 12.8899 21.1555 12.6569C21.5457 12.4238 21.854 12.0936 22.0806 11.6664C22.3197 11.2261 22.4393 10.7083 22.4393 10.1127C22.4393 9.50416 22.3197 8.98624 22.0806 8.55897C21.854 8.1317 21.5457 7.80154 21.1555 7.56848C20.7779 7.33543 20.3437 7.2189 19.8529 7.2189C19.362 7.2189 18.9215 7.33543 18.5313 7.56848C18.1412 7.80154 17.8328 8.1317 17.6063 8.55897C17.3797 8.98624 17.2664 9.50416 17.2664 10.1127C17.2664 10.7083 17.3797 11.2261 17.6063 11.6664C17.8328 12.0936 18.1412 12.4238 18.5313 12.6569C18.9215 12.8899 19.362 13.0065 19.8529 13.0065ZM33.3994 15.337V13.2978L33.2106 12.8511V9.19987C33.2106 8.55252 33.0156 8.04757 32.6254 7.68501C32.2478 7.32246 31.6626 7.14121 30.8696 7.14121C30.3285 7.14121 29.7935 7.23187 29.2649 7.41311C28.7489 7.58145 28.3084 7.81451 27.9434 8.11228L26.8862 5.99536C27.44 5.59396 28.107 5.28322 28.8873 5.06313C29.6677 4.84305 30.4606 4.73297 31.2661 4.73297C32.8142 4.73297 34.0162 5.10843 34.872 5.85941C35.7279 6.61039 36.1557 7.78212 36.1557 9.37467V15.337H33.3994ZM30.3033 15.4924C29.5103 15.4924 28.8307 15.3564 28.2643 15.0845C27.698 14.7997 27.2637 14.4178 26.9617 13.9387C26.6596 13.4596 26.5086 12.9223 26.5086 12.3267C26.5086 11.7052 26.6534 11.1614 26.9428 10.6953C27.2449 10.2292 27.7168 9.86665 28.3587 9.60772C29.0006 9.33582 29.8376 9.19987 30.8696 9.19987H33.5693V10.9672H31.1906C30.4984 10.9672 30.0201 11.0837 29.7558 11.3168C29.5041 11.5499 29.3782 11.8412 29.3782 12.1908C29.3782 12.5792 29.523 12.8899 29.8124 13.123C30.1145 13.3431 30.5235 13.4531 31.0395 13.4531C31.5304 13.4531 31.971 13.3366 32.3611 13.1036C32.7513 12.8575 33.0344 12.5015 33.2106 12.0354L33.6637 13.4337C33.4498 14.107 33.0596 14.6184 32.4932 14.968C31.9269 15.3176 31.1969 15.4924 30.3033 15.4924ZM38.7142 15.337V4.88834H43.9059C45.1771 4.88834 46.1714 5.12785 46.8888 5.60693C47.6062 6.07304 47.9649 6.73337 47.9649 7.5879C47.9649 8.44244 47.6251 9.11574 46.9454 9.60772C46.2783 10.0868 45.391 10.3263 44.2835 10.3263L44.5855 9.62714C45.819 9.62714 46.7378 9.8602 47.3419 10.3263C47.9585 10.7924 48.267 11.4722 48.267 12.3655C48.267 13.2848 47.9271 14.0099 47.2475 14.5407C46.5678 15.0716 45.5295 15.337 44.1325 15.337H38.7142ZM41.4139 13.2783H43.887C44.4282 13.2783 44.831 13.1877 45.0953 13.0065C45.3721 12.8122 45.5106 12.5209 45.5106 12.1325C45.5106 11.7311 45.3847 11.4398 45.133 11.2585C44.8813 11.0643 44.4848 10.9672 43.9437 10.9672H41.4139V13.2783ZM41.4139 9.18045H43.6416C44.1576 9.18045 44.5415 9.08335 44.7932 8.88913C45.0575 8.69492 45.1897 8.41657 45.1897 8.05402C45.1897 7.67856 45.0575 7.40014 44.7932 7.2189C44.5415 7.03766 44.1576 6.947 43.6416 6.947H41.4139V9.18045ZM50.4582 15.337V4.88834H53.3844V8.96682H57.8021V4.88834H60.7472V15.337H57.8021V11.4333H53.3844V15.337H50.4582ZM63.5665 15.337V4.88834H66.4928V11.1032L71.4394 4.88834H74.1391V15.337H71.2129V9.12219L66.2851 15.337H63.5665Z" fill="#4AB876"/>
</mask>
<g mask="url(#mask1_1_3027)">
<path d="M79.5418 38.6534C90.0213 38.6534 98.5166 29.914 98.5166 19.1335C98.5166 8.35291 90.0213 -0.386475 79.5418 -0.386475C69.0622 -0.386475 60.5669 8.35291 60.5669 19.1335C60.5669 29.914 69.0622 38.6534 79.5418 38.6534Z" fill="#313131"/>
</g>
</svg>
