<svg width="34" height="34" viewBox="0 0 34 34" fill="none" xmlns="http://www.w3.org/2000/svg">
<path d="M32.9356 24.9581V29.7754C32.9374 30.2226 32.8458 30.6653 32.6667 31.0751C32.4875 31.4848 32.2247 31.8526 31.8952 32.155C31.5657 32.4573 31.1766 32.6875 30.753 32.8307C30.3293 32.974 29.8804 33.0272 29.435 32.987C24.4938 32.4501 19.7475 30.7616 15.5773 28.0573C11.6975 25.5919 8.40811 22.3025 5.94273 18.4227C3.22895 14.2336 1.54011 9.46413 1.01303 4.50072C0.972906 4.05667 1.02568 3.60914 1.16799 3.1866C1.3103 2.76407 1.53903 2.3758 1.83963 2.04651C2.14022 1.71721 2.50608 1.45412 2.91392 1.27397C3.32176 1.09383 3.76265 1.00058 4.2085 1.00016H9.02579C9.80508 0.992486 10.5606 1.26844 11.1514 1.77659C11.7423 2.28475 12.1283 2.99041 12.2373 3.76207C12.4406 5.30371 12.8177 6.8174 13.3614 8.27426C13.5774 8.84901 13.6242 9.47363 13.4961 10.0741C13.368 10.6746 13.0705 11.2258 12.6388 11.6624L10.5994 13.7017C12.8853 17.7218 16.2139 21.0504 20.234 23.3363L22.2733 21.297C22.7099 20.8653 23.2611 20.5677 23.8616 20.4397C24.4621 20.3116 25.0868 20.3584 25.6615 20.5744C27.1184 21.118 28.6321 21.4951 30.1737 21.6984C30.9537 21.8085 31.6661 22.2014 32.1753 22.8024C32.6846 23.4034 32.9552 24.1706 32.9356 24.9581Z" stroke="#8069FF" stroke-width="2" stroke-linecap="round" stroke-linejoin="round"/>
</svg>
